<mxfile host="65bd71144e">
    <diagram name="Page-1" id="W95khSSwXfSeANBDjy2L">
        <mxGraphModel dx="897" dy="720" grid="1" gridSize="10" guides="1" tooltips="1" connect="1" arrows="1" fold="1" page="1" pageScale="1" pageWidth="850" pageHeight="1100" math="0" shadow="0">
            <root>
                <mxCell id="0"/>
                <mxCell id="1" parent="0"/>
                <mxCell id="JOTVKzsHOITDj2xdnX84-19" value="" style="whiteSpace=wrap;html=1;" parent="1" vertex="1">
                    <mxGeometry x="60" y="200" width="760" height="440" as="geometry"/>
                </mxCell>
                <mxCell id="JOTVKzsHOITDj2xdnX84-18" value="" style="group" parent="1" vertex="1" connectable="0">
                    <mxGeometry x="80" y="220" width="720" height="400" as="geometry"/>
                </mxCell>
                <mxCell id="JOTVKzsHOITDj2xdnX84-11" value="" style="whiteSpace=wrap;html=1;" parent="JOTVKzsHOITDj2xdnX84-18" vertex="1">
                    <mxGeometry x="460" y="230" width="120" height="120" as="geometry"/>
                </mxCell>
                <mxCell id="FUqlkYzUuh3DKQR2a9aL-34" value="Compilation Service" style="whiteSpace=wrap;html=1;fontStyle=0" parent="JOTVKzsHOITDj2xdnX84-18" vertex="1">
                    <mxGeometry x="260" y="160" width="120" height="20" as="geometry"/>
                </mxCell>
                <mxCell id="FUqlkYzUuh3DKQR2a9aL-48" value="Message Service" style="whiteSpace=wrap;html=1;" parent="JOTVKzsHOITDj2xdnX84-18" vertex="1">
                    <mxGeometry x="260" y="60" width="120" height="20" as="geometry"/>
                </mxCell>
                <mxCell id="FUqlkYzUuh3DKQR2a9aL-50" value="File Service" style="whiteSpace=wrap;html=1;" parent="JOTVKzsHOITDj2xdnX84-18" vertex="1">
                    <mxGeometry x="260" y="260" width="120" height="20" as="geometry"/>
                </mxCell>
                <mxCell id="FUqlkYzUuh3DKQR2a9aL-54" value="Message Service" style="whiteSpace=wrap;html=1;" parent="JOTVKzsHOITDj2xdnX84-18" vertex="1">
                    <mxGeometry x="260" y="290" width="120" height="20" as="geometry"/>
                </mxCell>
                <mxCell id="FUqlkYzUuh3DKQR2a9aL-58" value="Message Service" style="whiteSpace=wrap;html=1;" parent="JOTVKzsHOITDj2xdnX84-18" vertex="1">
                    <mxGeometry x="260" y="190" width="120" height="20" as="geometry"/>
                </mxCell>
                <mxCell id="FUqlkYzUuh3DKQR2a9aL-1" value="" style="rounded=0;whiteSpace=wrap;html=1;" parent="JOTVKzsHOITDj2xdnX84-18" vertex="1">
                    <mxGeometry width="180" height="400" as="geometry"/>
                </mxCell>
                <mxCell id="FUqlkYzUuh3DKQR2a9aL-2" value="Visual Studio Code" style="text;html=1;align=center;verticalAlign=middle;resizable=0;points=[];autosize=1;strokeColor=none;fillColor=none;" parent="JOTVKzsHOITDj2xdnX84-18" vertex="1">
                    <mxGeometry x="25" width="130" height="30" as="geometry"/>
                </mxCell>
                <mxCell id="FUqlkYzUuh3DKQR2a9aL-79" style="edgeStyle=orthogonalEdgeStyle;rounded=0;orthogonalLoop=1;jettySize=auto;html=1;exitX=1;exitY=0.5;exitDx=0;exitDy=0;startArrow=classic;startFill=1;" parent="JOTVKzsHOITDj2xdnX84-18" source="FUqlkYzUuh3DKQR2a9aL-4" target="FUqlkYzUuh3DKQR2a9aL-48" edge="1">
                    <mxGeometry relative="1" as="geometry"/>
                </mxCell>
                <mxCell id="FUqlkYzUuh3DKQR2a9aL-77" style="edgeStyle=orthogonalEdgeStyle;rounded=0;orthogonalLoop=1;jettySize=auto;html=1;exitX=1;exitY=0.5;exitDx=0;exitDy=0;entryX=0;entryY=0.5;entryDx=0;entryDy=0;startArrow=classic;startFill=1;" parent="JOTVKzsHOITDj2xdnX84-18" source="FUqlkYzUuh3DKQR2a9aL-7" target="FUqlkYzUuh3DKQR2a9aL-34" edge="1">
                    <mxGeometry relative="1" as="geometry"/>
                </mxCell>
                <mxCell id="FUqlkYzUuh3DKQR2a9aL-75" style="edgeStyle=orthogonalEdgeStyle;rounded=0;orthogonalLoop=1;jettySize=auto;html=1;exitX=1;exitY=0.5;exitDx=0;exitDy=0;entryX=0;entryY=0.5;entryDx=0;entryDy=0;startArrow=classic;startFill=1;" parent="JOTVKzsHOITDj2xdnX84-18" source="FUqlkYzUuh3DKQR2a9aL-8" target="FUqlkYzUuh3DKQR2a9aL-58" edge="1">
                    <mxGeometry relative="1" as="geometry"/>
                </mxCell>
                <mxCell id="FUqlkYzUuh3DKQR2a9aL-78" style="edgeStyle=orthogonalEdgeStyle;rounded=0;orthogonalLoop=1;jettySize=auto;html=1;exitX=1;exitY=0.5;exitDx=0;exitDy=0;entryX=0;entryY=0.5;entryDx=0;entryDy=0;startArrow=classic;startFill=1;" parent="JOTVKzsHOITDj2xdnX84-18" source="FUqlkYzUuh3DKQR2a9aL-34" target="FUqlkYzUuh3DKQR2a9aL-12" edge="1">
                    <mxGeometry relative="1" as="geometry"/>
                </mxCell>
                <mxCell id="FUqlkYzUuh3DKQR2a9aL-76" style="edgeStyle=orthogonalEdgeStyle;rounded=0;orthogonalLoop=1;jettySize=auto;html=1;exitX=1;exitY=0.5;exitDx=0;exitDy=0;entryX=0;entryY=0.5;entryDx=0;entryDy=0;startArrow=classic;startFill=1;" parent="JOTVKzsHOITDj2xdnX84-18" source="FUqlkYzUuh3DKQR2a9aL-58" target="FUqlkYzUuh3DKQR2a9aL-13" edge="1">
                    <mxGeometry relative="1" as="geometry"/>
                </mxCell>
                <mxCell id="FUqlkYzUuh3DKQR2a9aL-80" style="edgeStyle=orthogonalEdgeStyle;rounded=0;orthogonalLoop=1;jettySize=auto;html=1;exitX=1;exitY=0.5;exitDx=0;exitDy=0;entryX=0;entryY=0.5;entryDx=0;entryDy=0;startArrow=classic;startFill=1;" parent="JOTVKzsHOITDj2xdnX84-18" source="FUqlkYzUuh3DKQR2a9aL-48" target="FUqlkYzUuh3DKQR2a9aL-24" edge="1">
                    <mxGeometry relative="1" as="geometry"/>
                </mxCell>
                <mxCell id="FUqlkYzUuh3DKQR2a9aL-83" value="Message Service" style="whiteSpace=wrap;html=1;" parent="JOTVKzsHOITDj2xdnX84-18" vertex="1">
                    <mxGeometry x="260" y="130" width="120" height="20" as="geometry"/>
                </mxCell>
                <mxCell id="FUqlkYzUuh3DKQR2a9aL-92" value="" style="group" parent="JOTVKzsHOITDj2xdnX84-18" vertex="1" connectable="0">
                    <mxGeometry x="10" y="30" width="180" height="60" as="geometry"/>
                </mxCell>
                <mxCell id="FUqlkYzUuh3DKQR2a9aL-87" value="" style="rounded=0;whiteSpace=wrap;html=1;" parent="FUqlkYzUuh3DKQR2a9aL-92" vertex="1">
                    <mxGeometry width="160" height="60" as="geometry"/>
                </mxCell>
                <mxCell id="FUqlkYzUuh3DKQR2a9aL-4" value="Collaboration Extension&lt;span style=&quot;color: rgba(0, 0, 0, 0); font-family: monospace; font-size: 0px; text-align: start; text-wrap: nowrap;&quot;&gt;%3CmxGraphModel%3E%3Croot%3E%3CmxCell%20id%3D%220%22%2F%3E%3CmxCell%20id%3D%221%22%20parent%3D%220%22%2F%3E%3CmxCell%20id%3D%222%22%20value%3D%22File%20System%20Extension%22%20style%3D%22rounded%3D0%3BwhiteSpace%3Dwrap%3Bhtml%3D1%3B%22%20vertex%3D%221%22%20parent%3D%221%22%3E%3CmxGeometry%20x%3D%22210%22%20y%3D%22370%22%20width%3D%22140%22%20height%3D%2220%22%20as%3D%22geometry%22%2F%3E%3C%2FmxCell%3E%3C%2Froot%3E%3C%2FmxGraphModel%3E&lt;/span&gt;" style="rounded=0;whiteSpace=wrap;html=1;" parent="FUqlkYzUuh3DKQR2a9aL-92" vertex="1">
                    <mxGeometry x="10" y="30" width="170" height="20" as="geometry"/>
                </mxCell>
                <mxCell id="FUqlkYzUuh3DKQR2a9aL-91" value="Collaboration" style="text;html=1;align=center;verticalAlign=middle;resizable=0;points=[];autosize=1;strokeColor=none;fillColor=none;" parent="FUqlkYzUuh3DKQR2a9aL-92" vertex="1">
                    <mxGeometry x="35" width="90" height="30" as="geometry"/>
                </mxCell>
                <mxCell id="FUqlkYzUuh3DKQR2a9aL-93" value="" style="group" parent="JOTVKzsHOITDj2xdnX84-18" vertex="1" connectable="0">
                    <mxGeometry x="450" y="30" width="134.99666666666667" height="60" as="geometry"/>
                </mxCell>
                <mxCell id="FUqlkYzUuh3DKQR2a9aL-21" value="" style="rounded=0;whiteSpace=wrap;html=1;" parent="FUqlkYzUuh3DKQR2a9aL-93" vertex="1">
                    <mxGeometry x="10" width="120" height="60" as="geometry"/>
                </mxCell>
                <mxCell id="FUqlkYzUuh3DKQR2a9aL-22" value="Visual Studio Code" style="text;html=1;align=center;verticalAlign=middle;resizable=0;points=[];autosize=1;strokeColor=none;fillColor=none;rotation=0;" parent="FUqlkYzUuh3DKQR2a9aL-93" vertex="1">
                    <mxGeometry x="4.99666666666667" width="130" height="30" as="geometry"/>
                </mxCell>
                <mxCell id="FUqlkYzUuh3DKQR2a9aL-24" value="Collaboration&lt;span style=&quot;color: rgba(0, 0, 0, 0); font-family: monospace; font-size: 0px; text-align: start; text-wrap: nowrap;&quot;&gt;%3CmxGraphModel%3E%3Croot%3E%3CmxCell%20id%3D%220%22%2F%3E%3CmxCell%20id%3D%221%22%20parent%3D%220%22%2F%3E%3CmxCell%20id%3D%222%22%20value%3D%22File%20System%20Extension%22%20style%3D%22rounded%3D0%3BwhiteSpace%3Dwrap%3Bhtml%3D1%3B%22%20vertex%3D%221%22%20parent%3D%221%22%3E%3CmxGeometry%20x%3D%22210%22%20y%3D%22370%22%20width%3D%22140%22%20height%3D%2220%22%20as%3D%22geometry%22%2F%3E%3C%2FmxCell%3E%3C%2Froot%3E%3C%2FmxGraphModel%3E&lt;/span&gt;" style="rounded=0;whiteSpace=wrap;html=1;" parent="FUqlkYzUuh3DKQR2a9aL-93" vertex="1">
                    <mxGeometry y="30" width="120" height="20" as="geometry"/>
                </mxCell>
                <mxCell id="FUqlkYzUuh3DKQR2a9aL-84" style="edgeStyle=orthogonalEdgeStyle;rounded=0;orthogonalLoop=1;jettySize=auto;html=1;exitX=1;exitY=0.5;exitDx=0;exitDy=0;entryX=0;entryY=0.5;entryDx=0;entryDy=0;startArrow=classic;startFill=1;" parent="JOTVKzsHOITDj2xdnX84-18" source="FUqlkYzUuh3DKQR2a9aL-5" target="FUqlkYzUuh3DKQR2a9aL-83" edge="1">
                    <mxGeometry relative="1" as="geometry"/>
                </mxCell>
                <mxCell id="FUqlkYzUuh3DKQR2a9aL-85" style="edgeStyle=orthogonalEdgeStyle;rounded=0;orthogonalLoop=1;jettySize=auto;html=1;exitX=1;exitY=0.5;exitDx=0;exitDy=0;entryX=0;entryY=0.5;entryDx=0;entryDy=0;startArrow=classic;startFill=1;" parent="JOTVKzsHOITDj2xdnX84-18" source="FUqlkYzUuh3DKQR2a9aL-83" target="FUqlkYzUuh3DKQR2a9aL-19" edge="1">
                    <mxGeometry relative="1" as="geometry"/>
                </mxCell>
                <mxCell id="FUqlkYzUuh3DKQR2a9aL-97" value="" style="whiteSpace=wrap;html=1;" parent="JOTVKzsHOITDj2xdnX84-18" vertex="1">
                    <mxGeometry x="10" y="230" width="160" height="90" as="geometry"/>
                </mxCell>
                <mxCell id="2" style="edgeStyle=none;html=1;exitX=1;exitY=0.2;exitDx=0;exitDy=0;entryX=0;entryY=0.5;entryDx=0;entryDy=0;exitPerimeter=0;" parent="JOTVKzsHOITDj2xdnX84-18" source="FUqlkYzUuh3DKQR2a9aL-9" target="FUqlkYzUuh3DKQR2a9aL-50" edge="1">
                    <mxGeometry relative="1" as="geometry"/>
                </mxCell>
                <mxCell id="FUqlkYzUuh3DKQR2a9aL-9" value="Upload Extension" style="rounded=0;whiteSpace=wrap;html=1;" parent="JOTVKzsHOITDj2xdnX84-18" vertex="1">
                    <mxGeometry x="20" y="260" width="170" height="50" as="geometry"/>
                </mxCell>
                <mxCell id="3" style="edgeStyle=none;html=1;exitX=0;exitY=0.5;exitDx=0;exitDy=0;entryX=1;entryY=0.796;entryDx=0;entryDy=0;entryPerimeter=0;" parent="JOTVKzsHOITDj2xdnX84-18" source="FUqlkYzUuh3DKQR2a9aL-54" target="FUqlkYzUuh3DKQR2a9aL-9" edge="1">
                    <mxGeometry relative="1" as="geometry"/>
                </mxCell>
                <mxCell id="5" style="edgeStyle=none;html=1;exitX=1;exitY=0.5;exitDx=0;exitDy=0;entryX=0;entryY=0.204;entryDx=0;entryDy=0;entryPerimeter=0;" parent="JOTVKzsHOITDj2xdnX84-18" source="FUqlkYzUuh3DKQR2a9aL-50" target="FUqlkYzUuh3DKQR2a9aL-14" edge="1">
                    <mxGeometry relative="1" as="geometry"/>
                </mxCell>
                <mxCell id="4" style="edgeStyle=none;html=1;exitX=-0.001;exitY=0.802;exitDx=0;exitDy=0;entryX=1;entryY=0.5;entryDx=0;entryDy=0;exitPerimeter=0;" parent="JOTVKzsHOITDj2xdnX84-18" source="FUqlkYzUuh3DKQR2a9aL-14" target="FUqlkYzUuh3DKQR2a9aL-54" edge="1">
                    <mxGeometry relative="1" as="geometry"/>
                </mxCell>
                <mxCell id="7" value="" style="whiteSpace=wrap;html=1;" parent="JOTVKzsHOITDj2xdnX84-18" vertex="1">
                    <mxGeometry x="10" y="330" width="160" height="60" as="geometry"/>
                </mxCell>
                <mxCell id="FUqlkYzUuh3DKQR2a9aL-3" value="File System Extension" style="rounded=0;whiteSpace=wrap;html=1;" parent="JOTVKzsHOITDj2xdnX84-18" vertex="1">
                    <mxGeometry x="20" y="360" width="140" height="20" as="geometry"/>
                </mxCell>
                <mxCell id="8" value="File System" style="text;html=1;align=center;verticalAlign=middle;resizable=0;points=[];autosize=1;strokeColor=none;fillColor=none;" parent="JOTVKzsHOITDj2xdnX84-18" vertex="1">
                    <mxGeometry x="45" y="330" width="90" height="30" as="geometry"/>
                </mxCell>
                <mxCell id="FUqlkYzUuh3DKQR2a9aL-14" value="Programmer" style="rounded=0;whiteSpace=wrap;html=1;" parent="JOTVKzsHOITDj2xdnX84-18" vertex="1">
                    <mxGeometry x="450" y="260" width="120" height="50" as="geometry"/>
                </mxCell>
                <mxCell id="FUqlkYzUuh3DKQR2a9aL-17" value="" style="whiteSpace=wrap;html=1;" parent="JOTVKzsHOITDj2xdnX84-18" vertex="1">
                    <mxGeometry x="460" y="100" width="120" height="120" as="geometry"/>
                </mxCell>
                <mxCell id="FUqlkYzUuh3DKQR2a9aL-19" value="Language Server" style="rounded=0;whiteSpace=wrap;html=1;" parent="JOTVKzsHOITDj2xdnX84-18" vertex="1">
                    <mxGeometry x="450" y="130" width="120" height="20" as="geometry"/>
                </mxCell>
                <mxCell id="FUqlkYzUuh3DKQR2a9aL-18" value="Server / Browser" style="text;html=1;align=center;verticalAlign=middle;resizable=0;points=[];autosize=1;strokeColor=none;fillColor=none;rotation=0;" parent="JOTVKzsHOITDj2xdnX84-18" vertex="1">
                    <mxGeometry x="465" y="100" width="110" height="30" as="geometry"/>
                </mxCell>
                <mxCell id="FUqlkYzUuh3DKQR2a9aL-12" value="Compiler" style="rounded=0;whiteSpace=wrap;html=1;" parent="JOTVKzsHOITDj2xdnX84-18" vertex="1">
                    <mxGeometry x="450" y="160" width="120" height="20" as="geometry"/>
                </mxCell>
                <mxCell id="JOTVKzsHOITDj2xdnX84-16" style="edgeStyle=orthogonalEdgeStyle;rounded=0;orthogonalLoop=1;jettySize=auto;html=1;exitX=1;exitY=0.5;exitDx=0;exitDy=0;entryX=0.5;entryY=0;entryDx=0;entryDy=0;startArrow=classic;startFill=1;" parent="JOTVKzsHOITDj2xdnX84-18" source="FUqlkYzUuh3DKQR2a9aL-13" target="JOTVKzsHOITDj2xdnX84-15" edge="1">
                    <mxGeometry relative="1" as="geometry"/>
                </mxCell>
                <mxCell id="FUqlkYzUuh3DKQR2a9aL-13" value="Debugger" style="rounded=0;whiteSpace=wrap;html=1;" parent="JOTVKzsHOITDj2xdnX84-18" vertex="1">
                    <mxGeometry x="450" y="190" width="140" height="20" as="geometry"/>
                </mxCell>
                <mxCell id="JOTVKzsHOITDj2xdnX84-12" value="AVR Simulation" style="text;html=1;align=center;verticalAlign=middle;resizable=0;points=[];autosize=1;strokeColor=none;fillColor=none;" parent="JOTVKzsHOITDj2xdnX84-18" vertex="1">
                    <mxGeometry x="465" y="230" width="110" height="30" as="geometry"/>
                </mxCell>
                <mxCell id="FUqlkYzUuh3DKQR2a9aL-89" value="" style="rounded=0;whiteSpace=wrap;html=1;" parent="JOTVKzsHOITDj2xdnX84-18" vertex="1">
                    <mxGeometry x="10" y="100" width="160" height="120" as="geometry"/>
                </mxCell>
                <mxCell id="FUqlkYzUuh3DKQR2a9aL-5" value="Language Server Extension" style="rounded=0;whiteSpace=wrap;html=1;" parent="JOTVKzsHOITDj2xdnX84-18" vertex="1">
                    <mxGeometry x="20" y="130" width="170" height="20" as="geometry"/>
                </mxCell>
                <mxCell id="FUqlkYzUuh3DKQR2a9aL-94" value="LSP, Compile &amp;amp; Debug" style="text;html=1;align=center;verticalAlign=middle;resizable=0;points=[];autosize=1;strokeColor=none;fillColor=none;" parent="JOTVKzsHOITDj2xdnX84-18" vertex="1">
                    <mxGeometry x="15" y="100" width="150" height="30" as="geometry"/>
                </mxCell>
                <mxCell id="FUqlkYzUuh3DKQR2a9aL-99" value="Upload" style="text;html=1;align=center;verticalAlign=middle;resizable=0;points=[];autosize=1;strokeColor=none;fillColor=none;" parent="JOTVKzsHOITDj2xdnX84-18" vertex="1">
                    <mxGeometry x="60" y="230" width="60" height="30" as="geometry"/>
                </mxCell>
                <mxCell id="FUqlkYzUuh3DKQR2a9aL-7" value="Compiler Extension&lt;span style=&quot;color: rgba(0, 0, 0, 0); font-family: monospace; font-size: 0px; text-align: start; text-wrap: nowrap;&quot;&gt;%3CmxGraphModel%3E%3Croot%3E%3CmxCell%20id%3D%220%22%2F%3E%3CmxCell%20id%3D%221%22%20parent%3D%220%22%2F%3E%3CmxCell%20id%3D%222%22%20value%3D%22File%20System%20Extension%22%20style%3D%22rounded%3D0%3BwhiteSpace%3Dwrap%3Bhtml%3D1%3B%22%20vertex%3D%221%22%20parent%3D%221%22%3E%3CmxGeometry%20x%3D%22210%22%20y%3D%22370%22%20width%3D%22160%22%20height%3D%2220%22%20as%3D%22geometry%22%2F%3E%3C%2FmxCell%3E%3C%2Froot%3E%3C%2FmxGraphModel%3E&lt;/span&gt;" style="rounded=0;whiteSpace=wrap;html=1;" parent="JOTVKzsHOITDj2xdnX84-18" vertex="1">
                    <mxGeometry x="20" y="160" width="170" height="20" as="geometry"/>
                </mxCell>
                <mxCell id="FUqlkYzUuh3DKQR2a9aL-8" value="Debugger Extension" style="rounded=0;whiteSpace=wrap;html=1;" parent="JOTVKzsHOITDj2xdnX84-18" vertex="1">
                    <mxGeometry x="20" y="190" width="170" height="20" as="geometry"/>
                </mxCell>
                <mxCell id="JOTVKzsHOITDj2xdnX84-17" style="edgeStyle=orthogonalEdgeStyle;rounded=0;orthogonalLoop=1;jettySize=auto;html=1;exitX=1;exitY=0.5;exitDx=0;exitDy=0;entryX=0.5;entryY=1;entryDx=0;entryDy=0;startArrow=classic;startFill=1;" parent="JOTVKzsHOITDj2xdnX84-18" source="JOTVKzsHOITDj2xdnX84-13" target="JOTVKzsHOITDj2xdnX84-15" edge="1">
                    <mxGeometry relative="1" as="geometry"/>
                </mxCell>
                <mxCell id="JOTVKzsHOITDj2xdnX84-13" value="Debugger" style="rounded=0;whiteSpace=wrap;html=1;" parent="JOTVKzsHOITDj2xdnX84-18" vertex="1">
                    <mxGeometry x="470" y="320" width="120" height="20" as="geometry"/>
                </mxCell>
                <mxCell id="JOTVKzsHOITDj2xdnX84-15" value="Message Service" style="whiteSpace=wrap;html=1;" parent="JOTVKzsHOITDj2xdnX84-18" vertex="1">
                    <mxGeometry x="600" y="255" width="120" height="20" as="geometry"/>
                </mxCell>
            </root>
        </mxGraphModel>
    </diagram>
</mxfile>